HIERARCHY
ROOT Hip
{
   OFFSET 0.00000 0.00000 0.00000
   CHANNELS 6 Xposition Yposition Zposition Zrotation Yrotation Xrotation
   JOINT Head
   {
      OFFSET 0.000000 22.568199 0.000000
      CHANNELS 3 Zrotation Yrotation Xrotation
      End Site
      {
         OFFSET 0.000000 13.446300 0.000000
      }
      JOINT LeftShoulder
      {
         OFFSET 7.461870 0.000000 0.000000
         CHANNELS 3 Zrotation Yrotation Xrotation
         JOINT LeftHand
         {
            OFFSET 0.000000 -10.904100 0.000000
            CHANNELS 3 Zrotation Yrotation Xrotation
            End Site
            {
               OFFSET 0.000000 -11.942450 0.000000
            }
         }
      }
      JOINT RightShoulder
      {
         OFFSET -7.952640 0.000000 0.000000
         CHANNELS 3 Zrotation Yrotation Xrotation
         JOINT RghtHand
         {
            OFFSET 0.000000 -13.065350 0.000000
            CHANNELS 3 Zrotation Yrotation Xrotation
            End Site
            {
               OFFSET 0.000000 -8.949760 0.000000
            }
         }
      }
   }
   JOINT LeftHip
   {
      OFFSET 7.895735 0.000000 0.000000
      CHANNELS 3 Zrotation Yrotation Xrotation
      JOINT LeftKnee
      {
         OFFSET 0.000000 -22.256598 0.000000
         CHANNELS 3 Zrotation Yrotation Xrotation
         JOINT LeftFoot
         {
            OFFSET 0.000000 -16.969850 0.000000
            CHANNELS 3 Zrotation Yrotation Xrotation
            End Site
            {
               OFFSET 0.000000 0.000000 11.058950
            }
         }
      }
   }
   JOINT RightHip
   {
      OFFSET -7.895735 0.000000 0.000000
      CHANNELS 3 Zrotation Yrotation Xrotation
      JOINT RightKnee
      {
         OFFSET 0.000000 -20.142851 0.000000
         CHANNELS 3 Zrotation Yrotation Xrotation
         JOINT RightFoot
         {
            OFFSET 0.000000 -17.274800 0.000000
            CHANNELS 3 Zrotation Yrotation Xrotation
            End Site
            {
               OFFSET 0.000000 0.000000 11.108349
            }
         }
      }
   }
}
MOTION
Frames: 14
Frame Time: 0.016670
7.313138 77.926596 2.381979 28.984017 25.910994 253.119407 -6.820244 6.469659 15.615966 -1.183971 -70.527208 88.270100 63.210935 180.392208 136.729309 -45.109431 -8.350934 28.651032 -85.536481 10.029398 51.876260 -84.884485 -9.693018 81.353680 69.555477 -51.983091 -6.652537 1.089504 -48.220726 -25.045723 -108.858503 -27.309629 85.570789 27.094150 -39.334342 49.709126 -44.893385 -33.603489 19.801031
9.180646 77.943929 1.520468 26.638120 29.717583 253.755898 -7.616970 6.082986 15.883229 0.061335 -64.729914 88.210397 64.466761 182.174519 138.087983 -43.748847 -7.806105 28.010022 -84.371783 8.837993 51.742870 -83.876888 -7.824889 82.089475 64.823782 -52.991876 -7.625754 1.550368 -48.628857 -24.749911 -110.037039 -23.824600 84.847738 25.697269 -38.268239 48.158574 -44.990511 -33.809303 19.570814
11.069734 77.776941 0.647149 24.254888 33.500278 254.221663 -8.878199 5.564793 16.261005 1.651205 -60.054220 88.695238 64.835072 184.894300 141.140231 -42.409550 -7.337440 26.240216 -83.855612 8.473637 51.852501 -81.904616 -5.685248 82.995118 60.378606 -53.521919 -8.237402 2.244257 -48.459171 -23.844100 -110.900047 -20.195464 84.028354 24.911590 -36.711396 46.645261 -45.384968 -33.568054 18.689416
13.044681 77.392062 -0.274495 21.871516 37.048473 255.078469 -9.105035 3.709036 15.107578 2.390686 -53.960701 88.197078 67.609065 185.740246 144.380077 -43.905761 -5.728466 24.156335 -82.737995 7.322654 51.764863 -78.617356 -3.811288 83.630393 56.248797 -54.269562 -8.103938 2.893865 -48.435508 -23.012429 -110.729558 -17.499785 82.731998 23.592769 -34.984888 45.806817 -45.339496 -33.925478 18.712569
15.060191 76.785506 -1.231371 19.356488 40.955716 255.718485 -10.192267 3.391786 14.187660 3.737290 -51.470393 87.786768 70.749558 186.163363 146.748513 -44.333095 -5.292585 23.144741 -80.813603 5.211066 52.049108 -76.198137 -2.002541 84.755872 53.156388 -54.807033 -8.117942 3.141594 -48.421547 -22.723134 -110.522023 -14.602210 81.260195 22.480330 -33.926185 45.304894 -44.590272 -34.382421 19.917241
17.129227 75.933832 -2.215822 17.250613 45.444804 256.368746 -12.077081 6.754129 14.401065 4.773424 -56.306789 87.804677 70.038344 189.004134 150.623197 -43.825465 -6.607578 24.901876 -78.416152 2.253582 53.746318 -74.589422 -0.071643 85.802025 50.898170 -55.494235 -8.261384 3.497384 -48.729599 -22.404228 -109.850615 -11.524575 78.857252 21.721248 -33.564619 45.251219 -42.992233 -35.019394 22.620453
19.215345 74.835409 -3.225693 15.376144 49.223637 258.205138 -12.985493 5.838193 11.398921 4.226517 -52.644766 87.282147 75.359123 187.993498 155.062889 -46.413307 -4.701367 25.186924 -76.063398 -0.491410 54.268288 -73.101090 1.133401 87.287796 49.831110 -55.253891 -8.268685 4.187034 -48.320894 -21.322712 -107.663971 -9.814081 77.000261 21.201648 -33.133698 44.550045 -41.059184 -35.728142 25.951884
21.298735 73.482713 -4.276446 13.892028 53.199380 260.316404 -13.943873 6.795811 9.117604 4.319388 -50.935077 86.816656 79.225215 187.545315 158.044936 -47.644517 -3.683889 27.207876 -73.774950 -3.079236 55.789784 -70.792718 2.401947 88.564317 49.095526 -54.588511 -8.041223 6.087716 -47.577803 -18.435148 -103.756038 -8.155261 74.717618 21.643649 -32.416184 43.448483 -39.599794 -36.702903 28.798605
23.370368 71.847195 -5.370619 13.839604 57.354219 263.804964 -15.433000 8.904316 7.340849 4.547161 -50.748879 86.276764 82.000608 187.382224 160.201868 -47.055038 -3.996385 29.286263 -72.407395 -4.466675 57.855247 -70.623910 3.792952 90.205202 50.245091 -52.450710 -8.984371 8.159989 -45.960705 -15.019437 -97.404146 -6.466407 71.174820 22.711082 -32.401844 42.749051 -39.200887 -39.120940 30.796811
25.430421 69.944109 -6.562651 13.289631 61.443863 266.975320 -16.954394 10.887999 6.561711 3.378736 -52.264112 84.927925 83.278625 187.428246 162.294843 -45.988828 -5.556136 30.537598 -71.278973 -5.669685 60.244522 -68.394612 4.588340 90.957725 50.201771 -52.384378 -8.446680 9.018818 -45.893151 -13.782663 -87.056041 -4.006228 66.801832 22.929853 -33.713233 42.722075 -38.988352 -42.995266 33.363360
27.423286 67.793464 -7.818628 15.091236 65.496391 272.801007 -18.932081 11.668412 4.247997 5.371157 -49.159416 86.351698 86.200457 187.030537 163.149013 -44.213406 -6.061914 30.649398 -71.365293 -5.198869 60.978836 -63.886591 4.819533 89.214701 48.162970 -55.185521 -6.431236 10.612723 -48.257639 -12.220932 -77.862374 -0.648998 64.131884 26.376343 -36.936075 39.277986 -39.948346 -45.770945 33.503779
29.378759 65.375418 -9.144505 19.267217 69.305718 281.314974 -20.850110 12.755551 1.623250 5.922078 -49.151493 86.236186 87.990773 187.102678 165.056043 -43.762897 -6.500470 30.902317 -71.337132 -4.880778 62.209684 -62.711156 5.005301 88.164669 47.596856 -56.460461 -6.436812 12.979677 -49.704441 -9.368850 -67.174105 4.529904 61.450235 31.691798 -42.623720 33.716898 -39.747681 -47.456192 34.715359
31.243035 62.743320 -10.448590 24.800294 72.727287 291.569847 -22.923283 14.142759 -1.448444 6.144655 -52.269027 86.308804 88.348531 187.472997 167.516700 -43.245175 -7.124103 32.507247 -70.483618 -5.756363 63.887971 -61.178892 4.507689 87.169920 46.204246 -58.289169 -6.707299 16.249969 -51.817343 -5.425194 -56.074456 9.721252 60.652756 38.027430 -50.314049 24.306569 -39.208008 -48.285804 35.962360
32.628695 59.919380 -11.662556 30.001466 74.909000 301.602712 -23.942646 15.679526 -4.992396 5.910031 -55.778620 86.167658 89.893568 189.013000 169.715188 -43.178472 -5.857548 35.600838 -68.223713 -10.331866 66.059124 -59.792466 3.301474 86.186715 44.764110 -60.889579 -7.257918 18.725819 -54.917450 -2.448153 -45.287129 13.104457 59.737914 43.978591 -59.595306 13.752579 -37.500170 -48.832817 36.408156
